<?xml version="1.0" encoding="UTF-8"?>
<svg xmlns="http://www.w3.org/2000/svg"
     width="1254" height="1254"
     viewBox="0 0 1254 1254">
  <title>Forge Logo — Navy and Orange</title>
  <desc>Editable vector recreation of the supplied Forge logo.</desc>

  <defs>
    <linearGradient id="navyGradient" x1="0%" y1="0%" x2="100%" y2="100%">
      <stop offset="0%" stop-color="#173C78"/>
      <stop offset="48%" stop-color="#0B2B62"/>
      <stop offset="100%" stop-color="#082455"/>
    </linearGradient>

    <linearGradient id="orangeGradient" x1="0%" y1="0%" x2="100%" y2="100%">
      <stop offset="0%" stop-color="#FF7412"/>
      <stop offset="50%" stop-color="#FF6908"/>
      <stop offset="100%" stop-color="#FF5F00"/>
    </linearGradient>
  </defs>

  <rect width="1254" height="1254" fill="#FFFFFF"/>

  <g id="forge-mark">
    <g id="navy-section" fill="url(#navyGradient)">
      <path d="M 585 424 L 574 424 L 573 425 L 564 425 L 563 426 L 558 426 L 557 427 L 554 427 L 553 428 L 550 428 L 549 429 L 546 429 L 545 430 L 540 431 L 537 433 L 535 433 L 532 435 L 530 435 L 522 439 L 520 441 L 519 441 L 517 443 L 513 445 L 510 448 L 509 448 L 504 453 L 503 453 L 501 455 L 501 456 L 496 461 L 496 462 L 492 467 L 490 471 L 490 473 L 487 477 L 487 480 L 486 481 L 486 485 L 485 486 L 485 491 L 484 492 L 484 497 L 483 498 L 483 503 L 482 504 L 482 508 L 481 509 L 481 514 L 480 515 L 480 520 L 479 521 L 479 525 L 478 526 L 478 531 L 477 532 L 477 537 L 476 538 L 476 542 L 475 543 L 475 548 L 474 549 L 474 553 L 473 554 L 473 559 L 472 560 L 472 565 L 471 566 L 471 570 L 470 571 L 470 576 L 469 577 L 469 581 L 468 582 L 468 587 L 467 588 L 467 593 L 466 594 L 466 598 L 465 599 L 465 604 L 464 605 L 464 610 L 463 611 L 463 615 L 462 616 L 462 621 L 461 622 L 461 627 L 460 628 L 460 633 L 459 634 L 459 638 L 458 639 L 458 644 L 457 645 L 457 649 L 456 650 L 456 655 L 455 656 L 455 660 L 454 661 L 454 666 L 453 667 L 453 671 L 452 672 L 452 677 L 451 678 L 451 683 L 450 684 L 450 688 L 449 689 L 449 694 L 448 695 L 448 700 L 447 701 L 447 706 L 446 707 L 446 711 L 445 712 L 445 717 L 444 718 L 444 723 L 443 724 L 443 729 L 442 730 L 442 734 L 441 735 L 441 740 L 440 741 L 440 746 L 439 747 L 439 751 L 438 752 L 438 757 L 437 758 L 437 762 L 436 763 L 436 768 L 435 769 L 435 774 L 434 775 L 434 780 L 433 781 L 433 785 L 432 786 L 432 791 L 431 792 L 431 796 L 430 797 L 430 802 L 429 803 L 429 807 L 428 808 L 428 813 L 427 814 L 427 819 L 426 820 L 426 824 L 425 825 L 425 830 L 424 831 L 424 836 L 423 837 L 423 842 L 422 843 L 422 848 L 421 849 L 421 853 L 426 847 L 427 847 L 480 794 L 481 794 L 481 793 L 483 791 L 484 791 L 498 777 L 498 776 L 501 773 L 502 770 L 504 768 L 506 764 L 506 762 L 508 758 L 508 755 L 509 754 L 509 751 L 510 750 L 510 744 L 511 743 L 511 738 L 512 737 L 512 733 L 513 732 L 513 727 L 514 726 L 514 722 L 515 721 L 515 717 L 516 716 L 516 710 L 517 709 L 517 705 L 518 704 L 518 699 L 519 698 L 519 694 L 520 693 L 520 688 L 521 687 L 521 683 L 522 682 L 522 677 L 523 676 L 523 672 L 524 671 L 524 666 L 525 665 L 525 660 L 526 659 L 526 655 L 527 654 L 527 649 L 528 648 L 528 643 L 529 642 L 529 638 L 530 637 L 530 632 L 531 631 L 531 627 L 532 626 L 532 622 L 533 621 L 533 616 L 534 615 L 534 610 L 535 609 L 535 604 L 536 603 L 536 599 L 537 598 L 537 594 L 538 593 L 538 588 L 539 587 L 539 583 L 540 582 L 540 577 L 541 576 L 541 571 L 542 570 L 542 566 L 543 565 L 543 560 L 544 559 L 544 554 L 545 553 L 545 549 L 546 548 L 546 543 L 547 542 L 547 537 L 548 536 L 548 531 L 549 530 L 549 526 L 550 525 L 550 520 L 551 519 L 551 515 L 552 514 L 552 509 L 553 508 L 553 504 L 554 503 L 554 498 L 555 497 L 555 493 L 556 492 L 556 487 L 557 486 L 557 481 L 558 480 L 558 475 L 559 474 L 559 469 L 560 468 L 560 464 L 561 463 L 561 458 L 562 457 L 562 453 L 563 452 L 563 449 L 564 448 L 565 443 L 567 439 L 569 437 L 570 434 L 576 428 L 577 428 L 579 426 L 583 424 Z"/>
    </g>

    <g id="orange-sections" fill="url(#orangeGradient)">
      <path d="M 487 475 L 492 465 L 494 463 L 494 462 L 498 458 L 498 457 L 511 445 L 512 445 L 520 439 L 532 433 L 534 433 L 537 431 L 539 431 L 545 428 L 548 428 L 549 427 L 552 427 L 553 426 L 557 426 L 558 425 L 563 425 L 564 424 L 571 424 L 572 423 L 786 423 L 787 422 L 791 422 L 792 421 L 797 420 L 805 416 L 807 414 L 808 414 L 852 370 L 853 370 L 876 347 L 578 347 L 577 348 L 571 348 L 570 349 L 563 350 L 562 351 L 560 351 L 559 352 L 554 353 L 540 360 L 538 362 L 534 364 L 531 367 L 530 367 L 515 382 L 515 383 L 512 386 L 512 387 L 508 392 L 502 404 L 502 406 L 500 409 L 500 411 L 499 412 L 499 414 L 497 418 L 497 421 L 496 422 L 496 427 L 495 428 L 495 433 L 494 434 L 494 439 L 493 440 L 493 444 L 492 445 L 492 450 L 491 451 L 491 456 L 490 457 L 490 461 L 489 462 L 489 466 L 488 467 L 488 473 Z"/><path d="M 569 616 L 682 616 L 683 615 L 686 615 L 687 614 L 689 614 L 697 610 L 699 608 L 700 608 L 717 591 L 718 591 L 768 541 L 768 540 L 621 540 L 620 541 L 616 541 L 615 542 L 613 542 L 610 544 L 608 544 L 606 546 L 603 547 L 600 550 L 599 550 L 593 556 L 593 557 L 590 560 L 590 561 L 587 564 L 586 567 L 584 569 L 580 577 L 580 579 L 578 582 L 578 584 L 577 585 L 577 587 L 576 588 L 576 590 L 575 591 L 575 593 L 573 597 L 573 600 L 572 601 L 572 604 L 571 605 L 571 608 L 570 609 L 570 614 Z"/>
    </g>
  </g>
</svg>
